<svg id="Layer_1" data-name="Layer 1" xmlns="http://www.w3.org/2000/svg" viewBox="0 0 1080 1080">
  <defs>
    <style>
      .cls-1 {
        fill: #bdbdef;
      }

      .cls-1, .cls-2 {
        opacity: 0.79;
      }

      .cls-2 {
        fill: #ffcba1;
      }

      .cls-3 {
        fill: #efefef;
        opacity: 0.82;
      }

      .cls-4 {
        font-size: 152.49px;
        font-family: Poppins-Bold, Poppins;
        font-weight: 700;
      }

      .cls-4, .cls-7, .cls-8 {
        fill: #15133c;
      }

      .cls-5 {
        fill: #ec994b;
      }

      .cls-6 {
        letter-spacing: 0em;
      }

      .cls-7 {
        font-size: 69.28px;
        font-family: Poppins-Light, Poppins;
        font-weight: 300;
      }

      .cls-9 {
        fill: #31315e;
      }

      .cls-10 {
        fill: #ffb476;
      }
    </style>
  </defs>
  <path class="cls-1" d="M120.33,645.12C49.39,665,9.12,891.33,96.57,945.36c56,34.59,164.57-1.22,194.4-69.12C336.24,773.19,186.76,626.51,120.33,645.12Z"/>
  <path class="cls-1" d="M94.7,86.35C67,98.68,52.47,159.2,79.58,196.51c36.61,50.39,126.81,27.66,138.24-2.16C232.18,156.87,137.94,67.09,94.7,86.35Z"/>
  <path class="cls-1" d="M742.14,64c53.47-29.54,250.42,159.79,215.28,237.59-10.36,22.94-37.91,29.57-43.57,30.93C845.79,348.85,757.43,264.64,734.54,173,731.85,162.24,712.34,80.42,742.14,64Z"/>
  <path class="cls-2" d="M422.48,853.87C394.79,866.2,380.25,926.71,407.36,964c36.61,50.39,126.81,27.66,138.24-2.16C560,924.39,465.72,834.6,422.48,853.87Z"/>
  <path class="cls-1" d="M932.85,564.18c56.54-1.11,165,248,61.23,356.57-31.43,32.85-92.82,63.82-127.87,41.42C782.87,908.9,866.91,565.47,932.85,564.18Z"/>
  <path class="cls-3" d="M389.1,239C626.44,231.34,877.45,463.43,840,617.16c-20.93,85.8-130.47,142-219.84,149C371.23,785.77,144.94,434.43,210.25,307.89,243.41,243.64,350.29,240.21,389.1,239Z"/>
  <g>
    <text class="cls-4" transform="translate(200.78 726.56)">vent<tspan class="cls-5" x="354.08" y="0">oo</tspan><tspan class="cls-6" x="548.36" y="0">ls</tspan></text>
    <text class="cls-7" transform="translate(238.93 801.13)">inventory solution</text>
    <path class="cls-8" d="M431.35,502.88a131.81,131.81,0,0,0,108.27-56.51c69.12,104.51,242.87,52,240.22-75.46,2.64-127.38-171.12-180-240.22-75.44C470.48,191,296.76,243.53,299.39,370.92A132,132,0,0,0,431.35,502.88ZM647.88,286.35c111.17,1.9,111.15,167.26,0,169.14C536.72,453.59,536.73,288.23,647.88,286.35Zm-216.53,0c111.17,1.9,111.15,167.26,0,169.14C320.19,453.59,320.2,288.23,431.35,286.35Z"/>
    <path class="cls-9" d="M647.88,460.07A89.93,89.93,0,1,0,558,370.15,89.92,89.92,0,0,0,647.88,460.07Zm0-136.7a47.55,47.55,0,1,1-47.55,47.55A47.55,47.55,0,0,1,647.88,323.37Z"/>
    <path class="cls-9" d="M431.35,461.27a89.93,89.93,0,1,0-89.93-89.93A89.93,89.93,0,0,0,431.35,461.27Zm0-136.71a47.55,47.55,0,1,1-47.55,47.55A47.55,47.55,0,0,1,431.35,324.56Z"/>
    <path class="cls-10" d="M648.89,514.67a145.38,145.38,0,0,1-29.7-2.85,149.29,149.29,0,0,0,130,31.13c52.56-12.28,89.81-59.34,90.11-113.32v-.84A148.79,148.79,0,0,0,778.8,308.87a144,144,0,0,1,13.61,60.7C792.72,449,728.28,514.13,648.89,514.67Z"/>
    <path class="cls-10" d="M241.55,434v.85a117.05,117.05,0,0,0,90.11,113.32A149.35,149.35,0,0,0,470,509.44a144.92,144.92,0,0,1-39,5.23c-79.84-.18-144.78-65.79-144.18-145.63a143.84,143.84,0,0,1,9.51-50.53A148.72,148.72,0,0,0,241.55,434Z"/>
    <path class="cls-5" d="M667.92,528.82a144.14,144.14,0,0,1-29.5-2.83,148.63,148.63,0,0,0,129.16,30.84,116,116,0,0,0,89.51-112.24v-.84A147.26,147.26,0,0,0,797,325a142.11,142.11,0,0,1,13.51,60.12C810.78,463.73,746.78,528.28,667.92,528.82Z"/>
    <path class="cls-5" d="M422.72,529.14A145.3,145.3,0,0,0,452,524.32a147.71,147.71,0,0,1-92.77,41.1,149.28,149.28,0,0,1-34-1.56A116,116,0,0,1,228.26,458l-.06-.83a147.28,147.28,0,0,1,51.93-122.6,142.17,142.17,0,0,0-9.4,60.91C275.76,473.91,344,534,422.72,529.14Z"/>
  </g>
  <path class="cls-2" d="M543.6,93.66c9.61,24.07-113.38,122.54-191,100.49C329.16,187.48,302,167.53,309,147.8,325.76,100.89,532.4,65.58,543.6,93.66Z"/>
  <path class="cls-2" d="M117.74,370.73c39.88,9.43,53.22,192.63.86,215.52C103.16,593,86.46,583.86,83,582c-41.24-22.57-47.56-104.4-17.91-160.39C68.59,415,95.52,365.48,117.74,370.73Z"/>
  <path class="cls-2" d="M932.8,399.67c-16.77,7.76-25.58,45.84-9.16,69.32,22.18,31.72,76.82,17.41,83.75-1.36C1016.09,444.05,959,387.54,932.8,399.67Z"/>
</svg>
