<?xml version="1.0" encoding="utf-8"?>
<!-- Generator: Adobe Illustrator 24.3.0, SVG Export Plug-In . SVG Version: 6.00 Build 0)  -->
<svg version="1.1" id="Layer_1" xmlns="http://www.w3.org/2000/svg" xmlns:xlink="http://www.w3.org/1999/xlink" x="0px" y="0px"
	 viewBox="0 0 1080 1080" style="enable-background:new 0 0 1080 1080;" xml:space="preserve">
<style type="text/css">
	.st0{fill:#FFFFFF;}
</style>
<path class="st0" d="M381.8,682.5c61.5,0,119-30,154.1-80.5c98.4,148.8,345.8,74,342-107.4c3.8-181.4-243.6-256.2-342-107.4
	c-98.4-148.8-345.8-74-342,107.4C193.9,598.4,278,682.5,381.8,682.5z M690.1,374.2c158.3,2.7,158.2,238.1,0,240.8
	C531.8,612.3,531.8,376.9,690.1,374.2z M381.8,374.2c158.3,2.7,158.2,238.1,0,240.8C223.5,612.3,223.6,376.9,381.8,374.2
	L381.8,374.2z"/>
<path class="st0" d="M718.6,719.4c-14.1,0.1-28.2-1.2-42-4c51,42.7,119.1,59,183.9,43.9c74.3-17.4,127-83.5,127.4-159.8v-1.2
	c0-66.8-31.8-129.6-85.6-169.1c12.6,26.8,19.2,56,19.2,85.6C922,626.8,830.9,718.7,718.6,719.4z"/>
<path class="st0" d="M369.5,719.9c14.1-0.9,28-3.2,41.6-6.9c-48,46.1-114.8,66.9-180.5,56.3c-75.3-12.3-132.4-74.7-138-150.8
	l-0.1-1.2c-4.5-66.6,22.9-131.4,73.9-174.5c-10.7,27.6-15.3,57.2-13.4,86.7C160.3,641.3,257.4,726.8,369.5,719.9z"/>
</svg>
